name analog
datacolumns 19
datarows 32
range 0.3955 0.41100000000000003
endheader
time	ground_force_vx	ground_force_vy	ground_force_vz	ground_force_px	ground_force_py	ground_force_pz	l_ground_force_vx	l_ground_force_vy	l_ground_force_vz	l_ground_force_px	l_ground_force_py	l_ground_force_pz	ground_torque_x	ground_torque_y	ground_torque_z	l_ground_torque_x	l_ground_torque_y	l_ground_torque_z
0.3955	-0.0	-0.0	-0.0	5.945357799530029	71.0648422241211	-442.88763427734375	-2.8640952110290527	-73.95050048828125	-449.0464172363281	-0.0	-0.0	-0.0	-0.0	-0.0	-0.0	59160.30859375	13023.6611328125	-9419.025390625
0.396	-0.0	-0.0	-0.0	5.578545570373535	71.76578521728516	-441.4978332519531	-2.6200082302093506	-74.0547103881836	-448.6598510742188	-0.0	-0.0	-0.0	-0.0	-0.0	-0.0	59165.734375	12770.9609375	-9329.8984375
0.3965	-0.0	-0.0	-0.0	5.767180919647217	71.48258972167969	-442.9914245605469	-2.6141672134399414	-73.78997802734375	-448.18695068359375	-0.0	-0.0	-0.0	-0.0	-0.0	-0.0	58886.5703125	12941.693359375	-9408.3349609375
0.397	-0.0	-0.0	-0.0	6.124144554138184	71.41405487060547	-442.88763427734375	-2.6247687339782715	-73.80574798583984	-446.9347229003906	-0.0	-0.0	-0.0	-0.0	-0.0	-0.0	59103.921875	12872.3486328125	-9324.6494140625
0.3975	-0.0	-0.0	-0.0	6.186822891235352	72.00801086425781	-440.7685546875	-2.661323547363281	-73.22364807128906	-447.5091247558594	-0.0	-0.0	-0.0	-0.0	-0.0	-0.0	58831.37890625	12630.84375	-9373.4384765625
0.398	-0.0	-0.0	-0.0	6.663852691650391	71.78824615478516	-441.8897705078125	-2.650299549102783	-73.7176742553711	-448.24951171875	-0.0	-0.0	-0.0	-0.0	-0.0	-0.0	59077.04296875	12967.3173828125	-9349.1962890625
0.3985	-0.0	-0.0	-0.0	6.911838054656982	71.70343017578125	-441.7051696777344	-2.807753086090088	-73.5677261352539	-446.6869201660156	-0.0	-0.0	-0.0	-0.0	-0.0	-0.0	58760.73828125	12516.0380859375	-9300.34765625
0.399	-0.0	-0.0	-0.0	7.078524112701416	71.70367431640625	-441.1080017089844	-2.618861675262451	-73.39532470703125	-446.9140625	-0.0	-0.0	-0.0	-0.0	-0.0	-0.0	58840.4453125	12688.203125	-9394.341796875
0.3995	-0.0	-0.0	-0.0	7.256824016571045	71.59329223632812	-440.890380859375	-2.5146138668060303	-73.67558288574219	-445.41009521484375	-0.0	-0.0	-0.0	-0.0	-0.0	-0.0	58866.30078125	12751.8369140625	-9350.4150390625
0.4	-0.0	-0.0	-0.0	6.84137773513794	71.94642639160156	-441.5737915039063	-3.2089028358459477	-73.70286560058594	-446.96185302734375	-0.0	-0.0	-0.0	-0.0	-0.0	-0.0	58734.484375	12481.205078125	-9498.1328125
0.4005	-0.0	-0.0	-0.0	7.343414306640625	72.31526184082031	-441.3030395507813	-3.120112419128418	-73.77626037597656	-446.16644287109375	-0.0	-0.0	-0.0	-0.0	-0.0	-0.0	58728.9453125	12574.16015625	-9409.17578125
0.401	-0.0	-0.0	-0.0	6.795202732086182	72.96540832519531	-442.7672424316406	-2.572612762451172	-73.63239288330078	-447.61236572265625	-0.0	-0.0	-0.0	-0.0	-0.0	-0.0	58799.328125	12360.58984375	-9311.232421875
0.4015	-0.0	-0.0	-0.0	6.453481197357178	72.86498260498047	-440.8285827636719	-2.2934346199035645	-73.36727142333984	-447.2550048828125	-0.0	-0.0	-0.0	-0.0	-0.0	-0.0	58871.3671875	12395.947265625	-9329.71484375
0.402	-0.0	-0.0	-0.0	6.200770854949951	73.13213348388672	-441.94244384765625	-2.351640224456787	-73.55697631835938	-446.6241760253906	-0.0	-0.0	-0.0	-0.0	-0.0	-0.0	58684.73828125	12334.6064453125	-9369.5634765625
0.4025	-0.0	-0.0	-0.0	5.50097131729126	74.00829315185547	-442.64947509765625	-2.395191192626953	-73.0257339477539	-446.26953125	-0.0	-0.0	-0.0	-0.0	-0.0	-0.0	58445.79296875	11974.23046875	-9343.8916015625
0.403	-0.0	-0.0	-0.0	4.654455184936523	74.21572875976562	-443.8287658691406	-1.966569185256958	-72.42378234863281	-443.4813232421875	-0.0	-0.0	-0.0	-0.0	-0.0	-0.0	57981.62109375	12346.205078125	-9334.302734375
0.4035	-0.0	-0.0	-0.0	4.430911064147949	74.82488250732422	-443.9464416503906	-2.2177696228027344	-71.77591705322266	-440.9219970703125	-0.0	-0.0	-0.0	-0.0	-0.0	-0.0	57976.18359375	12157.1083984375	-9433.0810546875
0.404	-0.0	-0.0	-0.0	3.776623249053955	74.63191223144531	-443.3584899902344	-2.1441566944122314	-71.52581024169922	-440.0477600097656	-0.0	-0.0	-0.0	-0.0	-0.0	-0.0	57720.05859375	12286.998046875	-9309.4970703125
0.4045	-0.0	-0.0	-0.0	3.166698932647705	75.0029525756836	-443.47698974609375	-2.232519626617432	-70.51008605957031	-438.941650390625	-0.0	-0.0	-0.0	-0.0	-0.0	-0.0	57618.9609375	12175.1923828125	-9413.134765625
0.405	-0.0	-0.0	-0.0	2.5723888874053955	75.43373107910156	-443.7724304199219	-1.848237156867981	-69.70101165771484	-437.36907958984375	-0.0	-0.0	-0.0	-0.0	-0.0	-0.0	57771.58203125	12089.4501953125	-9373.20703125
0.4055	-0.0	-0.0	-0.0	1.621629238128662	74.91468048095703	-442.88763427734375	-1.685504913330078	-68.87633514404297	-439.0630493164063	-0.0	-0.0	-0.0	-0.0	-0.0	-0.0	57859.41015625	11953.232421875	-9293.4658203125
0.406	-0.0	-0.0	-0.0	1.0105034112930298	74.92950439453125	-443.47845458984375	-1.1823761463165283	-67.5805892944336	-436.7261962890625	-0.0	-0.0	-0.0	-0.0	-0.0	-0.0	57719.46875	12155.779296875	-9292.671875
0.40650000000000003	-0.0	-0.0	-0.0	0.6099214553833008	74.79684448242188	-442.1812744140625	-0.9322392344474792	-66.843505859375	-436.8458557128906	-0.0	-0.0	-0.0	-0.0	-0.0	-0.0	57635.55078125	11858.8466796875	-9188.6875
0.40700000000000003	-0.0	-0.0	-0.0	0.2073648422956466	74.58768463134766	-442.658447265625	-0.5776354074478149	-65.78527069091797	-438.4775695800781	-0.0	-0.0	-0.0	-0.0	-0.0	-0.0	57808.73828125	11849.1689453125	-9197.8017578125
0.40750000000000003	-0.0	-0.0	-0.0	-0.2676315307617187	74.57334899902344	-443.8330993652344	-0.901494026184082	-65.28643035888672	-437.4869995117188	-0.0	-0.0	-0.0	-0.0	-0.0	-0.0	57691.28515625	11753.8896484375	-9222.697265625
0.40800000000000003	-0.0	-0.0	-0.0	-0.0718463510274887	74.156494140625	-441.7024536132813	-0.7383755445480347	-64.15274047851562	-438.99652099609375	-0.0	-0.0	-0.0	-0.0	-0.0	-0.0	57916.96484375	11802.6533203125	-9252.8134765625
0.40850000000000003	-0.0	-0.0	-0.0	0.3888963460922241	74.05309295654297	-443.5374145507813	-0.6209754943847656	-62.956050872802734	-438.8274536132813	-0.0	-0.0	-0.0	-0.0	-0.0	-0.0	57871.96484375	12032.5400390625	-9326.1708984375
0.40900000000000003	-0.0	-0.0	-0.0	0.3246204853057861	72.95137786865234	-442.1812744140625	-0.7841737866401672	-62.591758728027344	-438.0173645019531	-0.0	-0.0	-0.0	-0.0	-0.0	-0.0	58355.671875	11869.740234375	-9285.9052734375
0.40950000000000003	-0.0	-0.0	-0.0	0.9955018162727356	73.14771270751953	-441.88427734375	-1.0324690341949463	-62.5955924987793	-438.40826416015625	-0.0	-0.0	-0.0	-0.0	-0.0	-0.0	58591.1640625	11784.03125	-9399.94140625
0.41000000000000003	-0.0	-0.0	-0.0	1.5165786743164062	72.42073822021484	-444.1328125	-1.2095715999603271	-62.16444778442383	-439.5819091796875	-0.0	-0.0	-0.0	-0.0	-0.0	-0.0	58491.8984375	11804.79296875	-9374.951171875
0.41050000000000003	-0.0	-0.0	-0.0	2.3476016521453857	71.46370697021484	-444.00286865234375	-1.6389179229736328	-61.8995246887207	-439.9486389160156	-0.0	-0.0	-0.0	-0.0	-0.0	-0.0	58592.60546875	11673.9814453125	-9559.318359375
0.41100000000000003	-0.0	-0.0	-0.0	2.760219097137451	71.38815307617188	-443.5386352539063	-2.42311429977417	-61.85298156738281	-439.2876892089844	-0.0	-0.0	-0.0	-0.0	-0.0	-0.0	58353.2734375	11765.001953125	-9578.5927734375
